<?xml version="1.0" encoding="UTF-8"?>
<svg xmlns="http://www.w3.org/2000/svg" xmlns:xlink="http://www.w3.org/1999/xlink" width="32px" height="32px" viewBox="0 0 32 32" version="1.1">
<g id="surface1">
<path style=" stroke:none;fill-rule:nonzero;fill:rgb(0%,0%,0%);fill-opacity:1;" d="M 14.910156 2.253906 C 13.242188 2.371094 11.324219 2.898438 9.847656 3.640625 C 7.210938 4.960938 4.980469 7.21875 3.730469 9.828125 C 2.839844 11.691406 2.4375 13.394531 2.394531 15.484375 C 2.320312 19.085938 3.511719 22.320312 5.894531 24.96875 C 8.046875 27.367188 10.90625 28.890625 14.101562 29.34375 C 15.289062 29.507812 16.691406 29.515625 17.875 29.355469 C 20.636719 28.984375 23.257812 27.726562 25.308594 25.789062 C 27.742188 23.488281 29.140625 20.726562 29.554688 17.40625 C 29.625 16.832031 29.632812 14.871094 29.570312 14.328125 C 29.351562 12.511719 28.917969 11.070312 28.148438 9.566406 C 26.265625 5.890625 22.859375 3.304688 18.816406 2.484375 C 17.695312 2.257812 16.136719 2.164062 14.910156 2.253906 Z M 17.078125 3.4375 C 20.949219 3.773438 24.375 5.804688 26.445312 9.003906 C 27.84375 11.164062 28.527344 13.582031 28.460938 16.125 C 28.417969 17.574219 28.152344 18.921875 27.632812 20.28125 C 26.722656 22.679688 25.039062 24.773438 22.859375 26.226562 C 20.128906 28.042969 16.808594 28.679688 13.484375 28.015625 C 10.058594 27.332031 7.042969 25.160156 5.226562 22.070312 C 3.632812 19.355469 3.144531 16.023438 3.878906 12.90625 C 4.300781 11.125 5.089844 9.515625 6.292969 8 C 6.679688 7.515625 7.609375 6.585938 8.109375 6.179688 C 9.800781 4.824219 11.78125 3.921875 13.847656 3.566406 C 14.160156 3.511719 14.34375 3.492188 15 3.429688 C 15.265625 3.398438 16.738281 3.410156 17.078125 3.4375 Z M 17.078125 3.4375 "/>
<path style=" stroke:none;fill-rule:nonzero;fill:rgb(0%,0%,0%);fill-opacity:1;" d="M 15.578125 5.601562 C 15.390625 5.699219 14.941406 5.941406 14.578125 6.132812 C 12.707031 7.117188 8.804688 9.214844 8.621094 9.328125 C 8.492188 9.410156 8.472656 9.46875 8.542969 9.527344 C 8.574219 9.554688 10.550781 9.558594 16.019531 9.554688 L 23.453125 9.546875 L 23.460938 9.464844 C 23.472656 9.378906 23.417969 9.347656 20.953125 8.023438 C 17.773438 6.316406 16.042969 5.40625 15.980469 5.410156 C 15.949219 5.414062 15.769531 5.496094 15.578125 5.601562 Z M 15.578125 5.601562 "/>
<path style=" stroke:none;fill-rule:nonzero;fill:rgb(0%,0%,0%);fill-opacity:1;" d="M 20.0625 10.515625 C 19.597656 10.617188 19.320312 10.773438 19 11.09375 C 18.871094 11.222656 18.710938 11.417969 18.648438 11.53125 C 18.347656 12.050781 18.195312 12.894531 18.277344 13.609375 C 18.328125 14.046875 18.386719 14.25 18.570312 14.621094 C 18.703125 14.90625 18.761719 14.988281 18.996094 15.21875 C 19.3125 15.535156 19.566406 15.675781 20.015625 15.785156 C 20.246094 15.835938 20.355469 15.847656 20.640625 15.835938 C 21.230469 15.804688 21.648438 15.632812 22.015625 15.265625 C 22.269531 15.007812 22.398438 14.800781 22.53125 14.445312 L 22.625 14.1875 L 22.554688 14.171875 C 22.515625 14.164062 22.335938 14.136719 22.160156 14.109375 C 21.980469 14.082031 21.820312 14.054688 21.804688 14.054688 C 21.789062 14.050781 21.71875 14.15625 21.648438 14.289062 C 21.378906 14.820312 20.894531 15.070312 20.328125 14.972656 C 20.042969 14.921875 19.863281 14.820312 19.664062 14.613281 C 19.289062 14.21875 19.125 13.488281 19.234375 12.734375 C 19.34375 12.003906 19.652344 11.523438 20.125 11.367188 C 20.484375 11.242188 20.898438 11.285156 21.195312 11.46875 C 21.363281 11.574219 21.601562 11.875 21.65625 12.054688 C 21.679688 12.117188 21.703125 12.179688 21.714844 12.195312 C 21.730469 12.210938 22.554688 12.101562 22.585938 12.078125 C 22.605469 12.0625 22.425781 11.566406 22.351562 11.421875 C 22.230469 11.199219 21.867188 10.847656 21.632812 10.722656 C 21.316406 10.554688 21.0625 10.496094 20.640625 10.480469 C 20.382812 10.476562 20.203125 10.484375 20.0625 10.515625 Z M 20.0625 10.515625 "/>
<path style=" stroke:none;fill-rule:nonzero;fill:rgb(0%,0%,0%);fill-opacity:1;" d="M 9.40625 10.984375 L 9.40625 11.40625 L 11.0625 11.40625 L 11.0625 15.6875 L 11.984375 15.6875 L 11.96875 11.40625 L 13.625 11.40625 L 13.625 10.5625 L 9.40625 10.5625 Z M 9.40625 10.984375 "/>
<path style=" stroke:none;fill-rule:nonzero;fill:rgb(0%,0%,0%);fill-opacity:1;" d="M 14.335938 13.125 L 14.328125 15.6875 L 17.6875 15.6875 L 17.6875 14.9375 L 15.28125 14.9375 L 15.28125 13.46875 L 17.367188 13.46875 L 17.371094 13.09375 L 17.378906 12.71875 L 15.28125 12.71875 L 15.28125 11.40625 L 17.625 11.40625 L 17.625 10.5625 L 14.34375 10.5625 Z M 14.335938 13.125 "/>
<path style=" stroke:none;fill-rule:nonzero;fill:rgb(0%,0%,0%);fill-opacity:1;" d="M 8.507812 16.804688 C 8.429688 16.835938 8.402344 16.945312 8.382812 17.328125 C 8.367188 17.742188 8.398438 17.914062 8.5 17.96875 C 8.539062 17.988281 11.195312 18 16.003906 18 L 23.445312 18 L 23.523438 17.929688 C 23.589844 17.867188 23.59375 17.847656 23.59375 17.390625 C 23.59375 16.9375 23.589844 16.914062 23.523438 16.851562 L 23.449219 16.78125 L 15.996094 16.785156 C 11.898438 16.785156 8.527344 16.792969 8.507812 16.804688 Z M 8.507812 16.804688 "/>
<path style=" stroke:none;fill-rule:nonzero;fill:rgb(0%,0%,0%);fill-opacity:1;" d="M 8.140625 21.285156 L 8.140625 23.410156 L 10.328125 23.386719 L 10.542969 23.304688 C 11.101562 23.089844 11.375 22.726562 11.375 22.203125 C 11.375 21.960938 11.308594 21.734375 11.1875 21.566406 C 11.085938 21.425781 10.851562 21.257812 10.710938 21.226562 C 10.601562 21.207031 10.601562 21.171875 10.71875 21.125 C 10.824219 21.082031 11.035156 20.867188 11.113281 20.714844 C 11.148438 20.644531 11.171875 20.515625 11.179688 20.328125 C 11.191406 20.09375 11.179688 20.015625 11.125 19.863281 C 11 19.527344 10.6875 19.300781 10.234375 19.203125 C 10.070312 19.167969 9.785156 19.15625 9.078125 19.15625 L 8.140625 19.15625 Z M 10.074219 19.925781 C 10.273438 20.027344 10.328125 20.125 10.328125 20.367188 C 10.328125 20.535156 10.3125 20.597656 10.257812 20.675781 C 10.132812 20.855469 10.007812 20.890625 9.460938 20.898438 L 8.96875 20.910156 L 8.96875 19.835938 L 9.460938 19.851562 C 9.882812 19.859375 9.96875 19.867188 10.074219 19.925781 Z M 10.082031 21.609375 C 10.644531 21.773438 10.585938 22.558594 10 22.683594 C 9.914062 22.703125 9.644531 22.71875 9.40625 22.71875 L 8.96875 22.71875 L 8.96875 21.5625 L 9.445312 21.5625 C 9.777344 21.5625 9.976562 21.578125 10.082031 21.609375 Z M 10.082031 21.609375 "/>
<path style=" stroke:none;fill-rule:nonzero;fill:rgb(0%,0%,0%);fill-opacity:1;" d="M 12.578125 20.945312 C 12.222656 21.929688 11.875 22.882812 11.808594 23.070312 L 11.691406 23.40625 L 12.546875 23.40625 L 12.699219 22.949219 C 12.789062 22.699219 12.867188 22.492188 12.878906 22.480469 C 12.910156 22.460938 14.460938 22.460938 14.492188 22.476562 C 14.507812 22.488281 14.585938 22.699219 14.671875 22.949219 L 14.828125 23.40625 L 15.273438 23.40625 C 15.519531 23.40625 15.71875 23.398438 15.71875 23.390625 C 15.71875 23.382812 15.707031 23.347656 15.6875 23.304688 C 15.660156 23.238281 15.113281 21.730469 14.71875 20.640625 C 14.617188 20.367188 14.457031 19.917969 14.359375 19.648438 L 14.179688 19.15625 L 13.226562 19.15625 Z M 14.257812 21.703125 C 14.265625 21.738281 13.320312 21.765625 13.195312 21.734375 C 13.128906 21.71875 13.132812 21.699219 13.394531 20.945312 C 13.539062 20.519531 13.664062 20.148438 13.675781 20.125 C 13.6875 20.089844 14.222656 21.535156 14.257812 21.703125 Z M 14.257812 21.703125 "/>
<path style=" stroke:none;fill-rule:nonzero;fill:rgb(0%,0%,0%);fill-opacity:1;" d="M 16.21875 21.28125 L 16.21875 23.40625 L 17.03125 23.40625 L 17.03125 21.976562 C 17.035156 20.679688 17.039062 20.554688 17.082031 20.609375 C 17.136719 20.679688 17.6875 21.523438 18.40625 22.648438 L 18.890625 23.40625 L 19.75 23.40625 L 19.75 19.15625 L 18.9375 19.15625 L 18.9375 22.078125 L 18.585938 21.539062 C 18.394531 21.242188 17.96875 20.582031 17.640625 20.078125 L 17.046875 19.15625 L 16.21875 19.15625 Z M 16.21875 21.28125 "/>
<path style=" stroke:none;fill-rule:nonzero;fill:rgb(0%,0%,0%);fill-opacity:1;" d="M 20.640625 21.28125 L 20.640625 23.40625 L 21.5 23.40625 L 21.5 21.964844 L 21.660156 21.78125 L 21.820312 21.601562 L 22.085938 21.976562 C 22.234375 22.1875 22.523438 22.59375 22.726562 22.882812 L 23.101562 23.40625 L 23.601562 23.40625 C 23.929688 23.40625 24.089844 23.398438 24.078125 23.375 C 24.066406 23.355469 23.6875 22.820312 23.234375 22.179688 C 22.429688 21.042969 22.410156 21.019531 22.460938 20.949219 C 22.492188 20.914062 22.628906 20.753906 22.765625 20.589844 C 23.574219 19.644531 23.929688 19.230469 23.949219 19.195312 C 23.96875 19.164062 23.867188 19.15625 23.488281 19.15625 L 23.003906 19.15625 L 22.585938 19.664062 C 22.355469 19.945312 22.023438 20.351562 21.84375 20.570312 C 21.667969 20.789062 21.511719 20.96875 21.503906 20.96875 C 21.492188 20.96875 21.488281 20.5625 21.492188 20.0625 L 21.503906 19.15625 L 20.640625 19.15625 Z M 20.640625 21.28125 "/>
</g>
</svg>
